<svg width="540" height="381" viewBox="0 0 540 381" fill="none" xmlns="http://www.w3.org/2000/svg">
<path d="M125.187 264.188L167 203.533L73.3587 148.606L25 218.756L102.453 264.188H125.187V264.188Z" fill="#F0F0F0"/>
<path fill-rule="evenodd" clip-rule="evenodd" d="M80 281.617H183V263.271H80V281.617ZM181.662 280.433H81.3376V264.454H181.662V280.433Z" fill="#3F3D56"/>
<path d="M171.5 278.865C175.09 278.865 178 276.196 178 272.903C178 269.609 175.09 266.94 171.5 266.94C167.91 266.94 165 269.609 165 272.903C165 276.196 167.91 278.865 171.5 278.865Z" fill="#222F65"/>
<path d="M151.5 278.865C155.09 278.865 158 276.196 158 272.903C158 269.609 155.09 266.94 151.5 266.94C147.91 266.94 145 269.609 145 272.903C145 276.196 147.91 278.865 151.5 278.865Z" fill="#222F65"/>
<path d="M133.5 278.865C137.09 278.865 140 276.196 140 272.903C140 269.609 137.09 266.94 133.5 266.94C129.91 266.94 127 269.609 127 272.903C127 276.196 129.91 278.865 133.5 278.865Z" fill="#222F65"/>
<path d="M114.5 278.865C118.09 278.865 121 276.196 121 272.903C121 269.609 118.09 266.94 114.5 266.94C110.91 266.94 108 269.609 108 272.903C108 276.196 110.91 278.865 114.5 278.865Z" fill="#222F65"/>
<path d="M95.5 278.865C99.0899 278.865 102 276.196 102 272.903C102 269.609 99.0899 266.94 95.5 266.94C91.9101 266.94 89 269.609 89 272.903C89 276.196 91.9101 278.865 95.5 278.865Z" fill="#222F65"/>
<path d="M307.462 69.662V22.8097H333V0H208V114.665H314.855V103.454C314.855 99.2332 316.683 95.1855 319.936 92.201C323.19 89.2165 327.602 87.5399 332.203 87.5399H333V69.662H307.462Z" fill="#F0F0F0"/>
<rect x="362" y="296.294" width="84" height="15.5944" fill="#222F65"/>
<rect x="340" y="217.405" width="123" height="14.6771" fill="#F0F0F0"/>
<rect y="379.77" width="524" height="0.91732" fill="#3F3D56"/>
<path fill-rule="evenodd" clip-rule="evenodd" d="M331.035 380.688H483.965C493.921 380.677 501.989 373.28 502 364.152V103.681C501.989 94.5531 493.921 87.1558 483.965 87.1454H331.035C321.079 87.1558 313.011 94.5531 313 103.681V364.152C313.011 373.28 321.079 380.677 331.035 380.688ZM314.345 103.682C314.356 95.2341 321.822 88.3884 331.035 88.3788H483.965C493.178 88.3884 500.644 95.2341 500.655 103.682V364.152C500.644 372.599 493.178 379.445 483.965 379.454H331.035C321.822 379.445 314.356 372.599 314.345 364.152V103.682Z" fill="#3F3D56"/>
<path fill-rule="evenodd" clip-rule="evenodd" d="M386 96.3186C386 98.3451 387.791 99.9878 390 99.9878C392.208 99.9856 393.998 98.3441 394 96.3186C394 94.2921 392.209 92.6493 390 92.6493C387.791 92.6493 386 94.2921 386 96.3186ZM387.333 96.3185C387.333 94.9675 388.527 93.8724 390 93.8724C391.472 93.8738 392.665 94.9681 392.667 96.3185C392.667 97.6695 391.473 98.7647 390 98.7647C388.527 98.7647 387.333 97.6695 387.333 96.3185Z" fill="#3F3D56"/>
<rect x="400" y="95.4012" width="30" height="0.91732" fill="#3F3D56"/>
<path d="M491 104.574V154.11C461.177 154.108 437.001 131.931 437 104.574H491Z" fill="#222F65"/>
<path fill-rule="evenodd" clip-rule="evenodd" d="M325 364.176H491V104.574H325V364.176ZM489.656 362.943H326.344V105.808H489.656V362.943Z" fill="#3F3D56"/>
<path opacity="0.1" d="M451.5 151.358C461.717 151.358 470 143.76 470 134.387C470 125.015 461.717 117.417 451.5 117.417C441.283 117.417 433 125.015 433 134.387C433 143.76 441.283 151.358 451.5 151.358Z" fill="black"/>
<path d="M448.5 153.192C458.717 153.192 467 145.594 467 136.222C467 126.849 458.717 119.252 448.5 119.252C438.283 119.252 430 126.849 430 136.222C430 145.594 438.283 153.192 448.5 153.192Z" fill="#222F65"/>
<rect x="332" y="114.665" width="26" height="8.25588" fill="#3F3D56"/>
<rect x="346" y="197.224" width="26" height="8.25588" fill="#3F3D56"/>
<path fill-rule="evenodd" clip-rule="evenodd" d="M347 229.33H471V213.735H347V229.33ZM469.652 228.13H348.348V214.935H469.652V228.13Z" fill="#3F3D56"/>
<rect x="340" y="264.188" width="123" height="14.6771" fill="#F0F0F0"/>
<rect x="346" y="243.09" width="26" height="8.25588" fill="#3F3D56"/>
<path fill-rule="evenodd" clip-rule="evenodd" d="M347 276.113H471V260.519H347V276.113ZM469.652 274.914H348.348V261.718H469.652V274.914Z" fill="#3F3D56"/>
<path fill-rule="evenodd" clip-rule="evenodd" d="M366 308.219H451V291.708H366V308.219ZM449.651 307.04H367.349V292.887H449.651V307.04Z" fill="#3F3D56"/>
<path d="M466 223.367C466 225.882 464.28 228.126 461.7 228.978C459.121 229.829 456.237 229.104 454.491 227.165L454.484 227.159C452.783 225.267 452.52 222.611 453.82 220.468C455.12 218.324 457.719 217.13 460.368 217.459C463.018 217.787 465.178 219.571 465.812 221.954C465.811 221.956 465.812 221.957 465.813 221.958C465.815 221.96 465.816 221.96 465.818 221.96C465.938 222.421 465.999 222.893 466 223.367V223.367Z" fill="#222F65"/>
<path opacity="0.1" d="M466 223.023C466 225.683 464.235 228.057 461.589 228.957C458.943 229.858 455.985 229.091 454.193 227.04L454.187 227.034C454.064 226.547 454.001 226.047 454 225.546C454 222.886 455.765 220.512 458.411 219.612C461.057 218.712 464.015 219.478 465.807 221.529C465.807 221.531 465.807 221.532 465.809 221.533C465.81 221.535 465.812 221.535 465.813 221.535C465.936 222.023 465.999 222.522 466 223.023V223.023Z" fill="black"/>
<path d="M462.5 232.082C466.09 232.082 469 229.412 469 226.119C469 222.826 466.09 220.157 462.5 220.157C458.91 220.157 456 222.826 456 226.119C456 229.412 458.91 232.082 462.5 232.082Z" fill="#222F65"/>
<path d="M466 269.233C466 271.748 464.28 273.992 461.7 274.844C459.121 275.695 456.237 274.97 454.491 273.031L454.484 273.025C452.783 271.132 452.52 268.477 453.82 266.334C455.12 264.19 457.719 262.996 460.368 263.325C463.018 263.653 465.178 265.437 465.812 267.82C465.811 267.822 465.812 267.823 465.813 267.824C465.815 267.826 465.816 267.826 465.818 267.826C465.938 268.287 465.999 268.759 466 269.233V269.233Z" fill="#222F65"/>
<path opacity="0.1" d="M466 269.807C466 272.467 464.235 274.84 461.589 275.741C458.943 276.641 455.985 275.874 454.193 273.824L454.187 273.817C454.064 273.33 454.001 272.83 454 272.329C454 269.669 455.765 267.295 458.411 266.395C461.057 265.495 464.015 266.262 465.807 268.312C465.807 268.314 465.807 268.315 465.809 268.317C465.81 268.318 465.812 268.318 465.813 268.318C465.936 268.806 465.999 269.305 466 269.807V269.807Z" fill="black"/>
<path d="M462.5 278.865C466.09 278.865 469 276.196 469 272.903C469 269.609 466.09 266.94 462.5 266.94C458.91 266.94 456 269.609 456 272.903C456 276.196 458.91 278.865 462.5 278.865Z" fill="#222F65"/>
<rect x="315" y="29.3542" width="35" height="32.1062" fill="#F0F0F0"/>
<path fill-rule="evenodd" clip-rule="evenodd" d="M443 44.9487C443 49.0016 446.582 52.2872 451 52.2872C455.416 52.2827 458.995 48.9998 459 44.9487C459 40.8957 455.418 37.6101 451 37.6101C446.582 37.6101 443 40.8957 443 44.9487ZM444.333 44.9486C444.333 41.5712 447.318 38.8332 451 38.8332C454.68 38.837 457.662 41.5728 457.667 44.9486C457.667 48.3261 454.682 51.0641 451 51.0641C447.318 51.0641 444.333 48.3261 444.333 44.9486Z" fill="#3F3D56"/>
<path fill-rule="evenodd" clip-rule="evenodd" d="M257 155.944H274V140.35H257V155.944ZM272.692 154.745H258.308V141.549H272.692V154.745Z" fill="#3F3D56"/>
<path fill-rule="evenodd" clip-rule="evenodd" d="M523 276.113H540V260.519H523V276.113ZM538.692 274.914H524.308V261.718H538.692V274.914Z" fill="#3F3D56"/>
<path d="M195 168.699L197.998 170.19L208.198 175.268L224.665 183.464L234.262 167.017C236.087 163.896 236.494 160.233 235.392 156.834C234.29 153.436 231.77 150.582 228.387 148.902C221.044 145.24 211.981 146.376 205.96 151.713L205.955 151.718C204.511 152.999 203.292 154.48 202.343 156.108L195 168.699Z" fill="#2F2E41"/>
<path d="M240 333.978L238.069 354.966L230.827 355.92L226 332.07L240 333.978V333.978Z" fill="#FFB8B8"/>
<path d="M228.352 356.487C228.352 356.487 237.927 351.779 239.943 355.545C239.943 355.545 238.431 366.844 244.479 368.256C250.527 369.668 253.047 379.554 244.479 380.495C235.912 381.437 230.368 378.612 227.344 378.612C224.32 378.612 227.344 368.727 227.344 368.727L228.352 356.487Z" fill="#2F2E41"/>
<path d="M179 333.978L180.931 354.966L188.173 355.92L193 332.07L179 333.978V333.978Z" fill="#FFB8B8"/>
<path d="M191.648 356.487C191.648 356.487 182.073 351.779 180.057 355.545C180.057 355.545 181.569 366.844 175.521 368.256C169.473 369.668 166.953 379.554 175.521 380.495C184.088 381.437 189.632 378.612 192.656 378.612C195.68 378.612 192.656 368.727 192.656 368.727L191.648 356.487Z" fill="#2F2E41"/>
<path d="M219.5 172.456C226.956 172.456 233 166.912 233 160.072C233 153.233 226.956 147.688 219.5 147.688C212.044 147.688 206 153.233 206 160.072C206 166.912 212.044 172.456 219.5 172.456Z" fill="#FFB8B8"/>
<path d="M179 183.28L189.495 198.594L201.988 197.666L222.477 199.058C222.477 199.058 224.411 195.467 225.991 191.972C226.855 190.227 227.52 188.403 227.974 186.529C228.474 183.28 221.478 180.032 221.478 180.032C221.478 180.032 221.203 179.986 220.743 179.884C220.134 179.749 219.194 179.526 218.165 179.201C215.841 178.468 213.047 177.225 212.483 175.391C211.483 172.143 218.979 167.503 218.979 167.503L209.984 159.614C209.984 159.614 201.993 169.92 192.288 172.268C191.725 172.406 191.155 172.515 190.579 172.593C190.549 172.598 190.524 172.602 190.494 172.607C179.999 173.999 179 183.28 179 183.28Z" fill="#FFB8B8"/>
<path d="M184.264 179.795L178.477 183.958C178.477 183.958 173.741 203.848 175.319 209.398C176.898 214.949 174.793 220.037 174.793 220.962C174.793 221.887 170.058 256.579 170.058 256.579C170.058 256.579 160.587 275.081 170.584 273.231C180.581 271.381 176.898 252.879 176.898 252.879L189 220.5V193.209L184.264 179.795Z" fill="#FFB8B8"/>
<path d="M224.046 183.464L228.137 186.216L230.183 224.739L245.525 257.759C245.525 257.759 256.776 273.811 249.616 274.269C242.456 274.728 237.854 257.759 237.854 257.759L224.046 226.115L222 195.388L224.046 183.464Z" fill="#FFB8B8"/>
<path d="M198.734 185.299C198.734 185.299 208.821 191.791 224.96 189.472C224.96 189.472 229.499 197.82 226.978 202.457C224.456 207.095 230.004 218.225 231.012 219.616C232.021 221.007 243.621 249.759 247.656 280.83C251.69 311.901 262.786 333.234 253.203 336.016C243.621 338.799 223.951 342.045 221.934 339.262C219.917 336.48 216.891 267.382 216.891 267.382L211.343 293.815C211.343 293.815 218.908 338.799 213.36 339.726C207.813 340.654 173.013 337.871 174.021 332.306C175.03 326.741 185.117 297.525 185.117 297.525C185.117 297.525 184.613 239.093 194.7 227.963C194.7 227.963 198.734 221.934 193.187 214.051C187.639 206.167 188.143 193.646 188.143 193.646C188.143 193.646 192.178 193.646 198.734 185.299Z" fill="#2F2E41"/>
<path d="M190 172.779L198.08 189.885L200 188.961L191.642 172.456L190 172.779V172.779Z" fill="#2F2E41"/>
<path d="M218 179.795L224.452 192.637L226 192.512L225.474 190.327L220.636 180.474C220.013 180.34 219.052 180.118 218 179.795Z" fill="#2F2E41"/>
<path d="M197.377 169.726C198.366 172.721 201.167 174.867 204.484 175.171C207.802 175.475 210.989 173.878 212.574 171.118C206.208 163.284 211.668 158.363 222.01 154.64C223.603 151.857 223.251 148.444 221.119 146.001C215.346 145.306 209.548 147.102 205.343 150.889L205.338 150.893L197.991 163.72C196.933 165.562 196.712 167.728 197.377 169.726V169.726Z" fill="#2F2E41"/>
<path d="M212.5 164.2C213.328 164.2 214 162.968 214 161.448C214 159.928 213.328 158.696 212.5 158.696C211.672 158.696 211 159.928 211 161.448C211 162.968 211.672 164.2 212.5 164.2Z" fill="#FFB8B8"/>
<path d="M218 156.973L233.212 163.283L236 157.649C235.52 155.59 234.514 153.665 233.065 152.03L222.595 147.688L218 156.973Z" fill="#2F2E41"/>
<path d="M254.5 280.7C258.09 280.7 261 278.03 261 274.737C261 271.444 258.09 268.775 254.5 268.775C250.91 268.775 248 271.444 248 274.737C248 278.03 250.91 280.7 254.5 280.7Z" fill="#222F65"/>
<path d="M38.5 317.393C40.9853 317.393 43 315.544 43 313.265C43 310.985 40.9853 309.137 38.5 309.137C36.0147 309.137 34 310.985 34 313.265C34 315.544 36.0147 317.393 38.5 317.393Z" fill="#FF6584"/>
<rect x="59" y="334.822" width="1" height="45.866" fill="#3F3D56"/>
<path d="M60 340.326C63.866 340.326 67 337.451 67 333.904C67 330.358 63.866 327.483 60 327.483C56.134 327.483 53 330.358 53 333.904C53 337.451 56.134 340.326 60 340.326Z" fill="#3F3D56"/>
<path d="M59 362.341C59 362.341 58.0233 342.827 38 345.096Z" fill="#3F3D56"/>
</svg>
