<svg width="500" height="550" viewBox="0 0 500 550" fill="none" xmlns="http://www.w3.org/2000/svg">
<path d="M386 531C386 531.131 385.987 531.262 385.962 531.383C385.936 531.505 385.899 531.615 385.851 531.708C385.804 531.801 385.748 531.875 385.686 531.925C385.624 531.975 385.557 532 385.491 532H113.509C113.374 532 113.245 531.895 113.149 531.707C113.054 531.52 113 531.265 113 531C113 530.735 113.054 530.48 113.149 530.293C113.245 530.105 113.374 530 113.509 530H385.491C385.557 530 385.624 530.025 385.686 530.075C385.748 530.125 385.804 530.199 385.851 530.292C385.899 530.385 385.936 530.495 385.962 530.617C385.987 530.738 386 530.869 386 531V531Z" fill="#CCCCCC"/>
<path d="M405.457 42.316C404.843 38.8931 403.321 35.6979 401.051 33.0635C397.822 29.3889 393.901 26.3863 389.512 24.227C385.123 22.0677 380.352 20.794 375.471 20.4788C370.589 20.1635 365.694 20.8128 361.063 22.3895C356.433 23.9663 352.159 26.4397 348.484 29.6684L348.171 29.9507C343.785 25.6993 338.438 22.5679 332.585 20.822C326.731 19.0761 320.543 18.7671 314.545 19.9212C308.547 21.0753 302.915 23.6585 298.127 27.4518C293.34 31.2452 289.537 36.1368 287.042 41.7122C284.749 46.8143 283.698 52.3871 283.974 57.9738C284.251 63.5605 285.848 69.0022 288.634 73.8527C289.883 76.0397 291.352 78.0942 293.017 79.9844C294.734 81.9446 341.09 133.515 341.553 134.033C341.608 134.097 341.677 134.149 341.754 134.184C341.831 134.219 341.915 134.237 342 134.237C342.015 134.237 342.039 134.229 342.062 134.229C342.095 134.228 342.127 134.22 342.157 134.205C342.31 134.168 342.442 134.072 342.525 133.939L342.768 133.539L343.058 133.045L347.347 125.878C359.242 106.001 375.277 87.2452 395.013 70.136C396.284 69.0326 397.461 67.8262 398.534 66.5291C402.756 61.4806 405.305 55.244 405.826 48.6829C405.975 46.5536 405.851 44.4139 405.457 42.316Z" fill="#6C63FF"/>
<path d="M240.618 256.689L238.208 262.295L242.147 282.208L282.336 276.62L282.016 252.34L281.209 247.021L240.618 256.689Z" fill="#FFB6B6"/>
<path d="M219.854 514.761H228.721L232.94 480.561H219.854V514.761Z" fill="#FFB6B6"/>
<path d="M244.592 523.214L231.129 513.913V507.839L229.564 507.937L219.854 508.515L216.964 508.684L215.177 530.123H221.535L222.664 524.121L225.572 530.123H242.44C243.248 530.123 244.035 529.864 244.686 529.385C245.336 528.906 245.817 528.231 246.057 527.46C246.297 526.688 246.285 525.861 246.021 525.097C245.758 524.333 245.257 523.673 244.592 523.214V523.214Z" fill="#2F2E41"/>
<path d="M269.659 514.761H278.526L283.742 464.411L267.081 463.415L269.659 514.761Z" fill="#FFB6B6"/>
<path d="M294.398 523.214L280.935 513.913V507.839L279.227 507.937L269.348 508.533L266.769 508.684L264.982 530.123H271.34L272.469 524.121L275.377 530.123H292.246C293.054 530.123 293.84 529.864 294.491 529.385C295.141 528.906 295.622 528.231 295.862 527.46C296.102 526.688 296.09 525.861 295.827 525.097C295.563 524.333 295.062 523.673 294.398 523.214V523.214Z" fill="#2F2E41"/>
<path d="M216.091 485.268H216.125L217.83 429.661C216.727 427.532 216.167 425.164 216.2 422.766C216.233 420.369 216.859 418.017 218.021 415.92L218.265 415.478L217.632 412.544C216.819 408.774 217.192 404.845 218.7 401.295L220.291 349.424C214.608 312.591 241.693 288.57 241.693 288.57L239.203 269.265L283.012 270.261L282.266 288.57L290.977 318.498C295.561 363.16 295.834 406.915 291.144 449.625C291.135 449.747 291.153 449.871 291.198 449.985C291.674 451.432 291.841 452.963 291.69 454.478C291.538 455.994 291.071 457.461 290.317 458.784C290.122 459.122 289.988 459.492 289.921 459.876C288.955 467.364 288.829 457.892 287.548 465.314L287.798 465.44C288.695 465.749 289.079 466.992 288.657 468.215C288.235 469.439 287.165 470.179 286.268 469.87L262.85 470.12C261.953 469.81 261.568 468.568 261.99 467.344C262.412 466.121 263.482 465.38 264.379 465.69L265.836 466.427L263.398 458.452L262.544 457.654C262.134 457.272 261.817 456.802 261.615 456.28C261.412 455.758 261.331 455.196 261.376 454.638C261.422 454.08 261.593 453.539 261.877 453.057C262.161 452.574 262.55 452.162 263.016 451.851V451.851L263.724 428.698L264.069 418.897L263.359 407.777L260.074 357.763L247.642 419.267L234.943 485.887C235.239 486.154 235.462 486.493 235.59 486.871C235.717 487.249 235.745 487.654 235.672 488.046C235.555 488.593 235.251 489.083 234.812 489.432C234.374 489.78 233.828 489.965 233.268 489.955H216.029C215.667 489.954 215.311 489.871 214.987 489.71C214.663 489.549 214.381 489.316 214.162 489.028C213.943 488.741 213.794 488.406 213.725 488.051C213.657 487.696 213.671 487.331 213.767 486.982C213.913 486.481 214.219 486.042 214.639 485.732C215.059 485.422 215.569 485.259 216.091 485.268Z" fill="#2F2E41"/>
<path d="M231.421 162.068C231.42 165.619 232.29 169.115 233.955 172.25C235.621 175.386 238.03 178.065 240.973 180.051C243.915 182.038 247.3 183.272 250.831 183.646C254.361 184.019 257.93 183.52 261.222 182.192C264.515 180.864 267.431 178.748 269.715 176.03C272 173.312 273.582 170.075 274.322 166.603C275.063 163.131 274.941 159.53 273.965 156.116C272.989 152.702 271.191 149.58 268.727 147.024L268.623 146.92C268.449 146.738 268.276 146.556 268.094 146.382C268.092 146.382 268.091 146.382 268.09 146.382C268.089 146.381 268.088 146.381 268.087 146.38C268.087 146.379 268.086 146.378 268.086 146.377C268.085 146.376 268.085 146.375 268.085 146.374C267.836 146.192 267.607 145.986 267.4 145.758C264.472 141.666 261.152 138.235 253.111 140.379C241.533 143.464 231.421 150.087 231.421 162.068Z" fill="#2F2E41"/>
<path d="M350.566 152.783C350.616 153.943 350.41 155.101 349.963 156.173C349.517 157.245 348.841 158.206 347.983 158.989C347.125 159.772 346.105 160.357 344.997 160.703C343.888 161.049 342.717 161.148 341.566 160.993L285.63 206.899L277.086 191.882L334.756 151.479C335.145 149.563 336.224 147.856 337.787 146.682C339.351 145.508 341.291 144.948 343.24 145.109C345.189 145.269 347.011 146.139 348.361 147.554C349.712 148.968 350.496 150.829 350.566 152.783V152.783Z" fill="#FFB6B6"/>
<path d="M262.011 220.438C262.011 220.438 263.833 224.219 270.92 218.848C276.594 214.548 303.68 195.998 309.697 188.156C310.96 188.727 312.376 188.861 313.723 188.538C315.07 188.215 316.272 187.453 317.138 186.371L302.339 172.123C297.695 172.437 297.648 175.544 298.046 177.328L286.152 182.055L255.175 199.851L260.645 217.728L262.011 220.438Z" fill="#E6E6E6"/>
<path d="M258.454 185.274C268.499 185.274 276.642 177.131 276.642 167.086C276.642 157.041 268.499 148.898 258.454 148.898C248.409 148.898 240.267 157.041 240.267 167.086C240.267 177.131 248.409 185.274 258.454 185.274Z" fill="#FFB7B7"/>
<path d="M283.264 257.301L283.451 247.155C284.189 246.141 290.378 237.293 288.991 228.454C288.342 224.293 286.083 220.798 282.295 218.077L279.85 212.386L276.231 203.974L265.64 197.669L264.173 194.681L262.964 192.201L248.354 190.742L244.752 195.588L244.681 195.597C241.372 196.349 238.263 197.805 235.567 199.866C232.606 202.112 230.206 205.013 228.555 208.343C226.905 211.672 226.048 215.339 226.052 219.055L226.141 230.846L226.159 232.536L226.167 234.172L235.282 258.705L235.629 259.657L239.204 269.269L238.59 270.283C237.929 271.386 237.685 272.689 237.902 273.957C238.119 275.224 238.783 276.372 239.773 277.192L240.199 283.204L240.973 282.99L245.375 281.763L278.667 272.471C279.921 272.12 281.028 271.375 281.824 270.345C281.853 270.308 281.879 270.27 281.904 270.23C282.036 270.066 282.152 269.891 282.251 269.705C283.007 267.793 283.087 267.278 283.096 266.744C284.201 265.485 284.839 263.884 284.904 262.21C284.969 260.536 284.456 258.89 283.451 257.549L283.264 257.301Z" fill="#E6E6E6"/>
<path d="M239.42 171.854C239.585 171.828 239.75 171.794 239.915 171.768C242.752 171.264 245.589 170.77 248.417 170.258L248.677 163.847L252.104 169.59C259.921 172.184 267.235 170.718 274.115 167.482C276.384 166.404 278.586 165.191 280.708 163.847C281.407 153.004 277.023 146.062 268.866 146.79C268.568 146.817 268.354 146.512 268.094 146.382C268.093 146.382 268.091 146.382 268.09 146.381C268.089 146.381 268.088 146.38 268.088 146.38C268.087 146.379 268.086 146.378 268.086 146.377C268.085 146.376 268.085 146.375 268.085 146.373C267.643 146.165 267.191 145.966 266.74 145.784C263.208 144.403 259.357 144.054 255.634 144.775C251.912 145.497 248.47 147.261 245.71 149.861C240.158 155.162 237.659 163.916 239.42 171.854Z" fill="#2F2E41"/>
<path d="M251.27 140.902C251.088 141.528 250.729 142.089 250.235 142.515C249.741 142.941 249.133 143.215 248.487 143.303C246.042 146.326 243.241 149.527 239.408 150.132C238.313 150.364 237.17 150.167 236.216 149.58C236.099 149.507 235.992 149.421 235.896 149.323C234.989 148.46 234.917 146.726 235.993 146.077C231.174 147.989 228.355 153.191 227.644 158.321C226.932 163.452 227.919 168.636 228.568 173.776C229.217 178.916 229.502 184.313 227.484 189.089C225.1 194.717 219.623 198.763 213.647 200.053C213.114 200.168 212.58 200.266 212.038 200.328C211.677 197.888 210.772 195.559 209.388 193.517C209.754 195.881 209.537 198.298 208.756 200.56C204.263 200.497 199.85 199.357 195.889 197.234C190.474 194.379 185.966 190.022 182.275 185.14C188.633 189.649 197.419 191.338 204.337 187.773C210.526 184.571 214.181 177.849 215.781 171.073C217.382 164.288 210.654 155.976 211.384 149.049C212.122 142.121 220.476 136.242 225.047 130.987C227.964 127.634 232.267 125.153 236.705 125.571C238.203 125.714 239.653 126.178 240.956 126.932C242.259 127.686 243.385 128.711 244.256 129.939C245.126 131.167 245.722 132.568 246.003 134.047C246.284 135.526 246.242 137.048 245.882 138.51C247.144 136.722 250.408 137.113 251.217 139.15C251.434 139.711 251.453 140.329 251.27 140.902V140.902Z" fill="#2F2E41"/>
<path d="M239.915 171.768C239.915 171.768 245.302 151.657 268.397 147.016C268.423 147.007 268.51 146.972 268.623 146.92C268.692 146.877 268.779 146.833 268.866 146.79C268.606 146.643 268.354 146.512 268.094 146.382C268.093 146.382 268.091 146.382 268.09 146.382C268.089 146.381 268.088 146.381 268.087 146.38C268.087 146.379 268.086 146.378 268.086 146.377C268.085 146.376 268.085 146.375 268.085 146.374C267.859 146.165 267.634 145.957 267.4 145.758L266.74 145.784C266.74 145.784 243.567 142.114 239.915 171.768Z" fill="#FD6584"/>
<path d="M297.876 267.603C297.669 267.079 297.323 266.623 296.874 266.283C296.426 265.944 295.892 265.734 295.333 265.677C294.211 265.579 293.081 265.743 292.033 266.154C287.92 267.525 284.226 269.926 281.304 273.13L281.354 275.165C279.982 276.915 279.25 279.082 279.279 281.305C279.308 283.528 280.097 285.675 281.514 287.388C282.314 288.374 283.406 289.081 284.634 289.408C285.247 289.561 285.89 289.545 286.496 289.363C287.101 289.18 287.645 288.838 288.072 288.371C289.301 286.874 288.708 284.618 287.804 282.905C286.226 279.924 283.917 277.393 281.094 275.548C285.808 275.428 290.439 274.277 294.661 272.176C295.597 271.767 296.441 271.175 297.144 270.434C297.491 270.06 297.74 269.605 297.868 269.111C297.995 268.617 297.998 268.098 297.876 267.603V267.603Z" fill="#2F2E41"/>
<path d="M350.886 143.334C350.71 142.155 351.989 141.315 352.467 140.224C352.775 139.25 352.775 138.205 352.467 137.231C352.191 135.908 351.873 134.504 350.915 133.551C349.936 132.728 348.73 132.223 347.457 132.101C344.363 131.561 341.204 131.505 338.093 131.936L340.453 132.079C338.967 131.985 337.475 132.158 336.05 132.59C335.34 132.815 334.697 133.214 334.181 133.751C333.665 134.289 333.292 134.947 333.097 135.666C332.805 137.123 333.801 138.829 335.282 138.954C334.542 138.803 333.773 138.952 333.143 139.366C332.513 139.781 332.072 140.428 331.917 141.166C331.763 141.905 331.906 142.674 332.317 143.307C332.728 143.94 333.373 144.384 334.111 144.543C333.77 145.463 332.757 145.904 331.889 146.364C331.022 146.823 330.109 147.61 330.255 148.581C330.449 149.864 332.164 150.128 333.461 150.071L347.577 149.456C348.792 149.499 350 149.248 351.098 148.724C352.144 148.114 352.874 146.777 352.391 145.666C352.017 144.808 351.024 144.259 350.886 143.334Z" fill="#3F3D56"/>
<path d="M187.172 269.057C185.232 277.58 184.31 287.243 189.484 294.87C191.683 298.142 194.911 300.587 198.656 301.818C202.447 302.942 206.445 303.188 210.345 302.536C219.17 301.314 227.014 296.717 235.693 294.932C239.524 294.144 243.589 293.884 247.276 295.4C250.039 296.535 252.949 298.819 252.962 302.076C252.975 305.421 250.07 307.641 247.181 308.669C243.326 310.042 239.32 309.511 235.321 309.338C231.014 309.151 226.623 309.541 223.045 312.178C219.968 314.58 217.608 317.779 216.222 321.428C214.424 325.793 213.694 330.485 212.544 335.039C211.516 339.133 210.062 343.108 208.206 346.899C204.564 354.329 199.458 360.947 193.196 366.356C190.107 369.014 186.354 371.722 182.135 371.966C178.882 372.154 174.926 370.787 173.672 367.491C173.206 366.068 173.252 364.527 173.801 363.135C174.35 361.742 175.369 360.584 176.681 359.863C179.469 358.455 182.506 360.463 183.406 363.218C183.642 363.853 183.725 364.535 183.647 365.208C183.569 365.881 183.334 366.526 182.959 367.09C182.113 368.351 184.15 369.53 184.99 368.278C186.94 365.37 185.921 361.46 183.533 359.13C182.368 357.943 180.81 357.22 179.151 357.096C177.492 356.972 175.844 357.457 174.516 358.458C173.136 359.509 172.093 360.94 171.514 362.575C170.936 364.21 170.847 365.979 171.26 367.663C172.263 371.283 175.82 373.586 179.372 374.156C183.758 374.861 187.979 373.137 191.52 370.646C195.073 368.082 198.303 365.098 201.141 361.76C206.91 355.125 211.246 347.371 213.879 338.983C216.469 330.686 216.657 319.726 224.35 314.122C228.309 311.239 233.16 311.559 237.802 311.823C241.899 312.057 245.896 312.015 249.655 310.16C252.759 308.628 255.263 305.801 255.315 302.199C255.367 298.563 252.785 295.639 249.744 293.983C241.708 289.607 232.059 293.136 224.165 296.06C216.226 299 207.162 302.451 198.726 299.357C194.832 297.844 191.697 294.848 190.008 291.027C187.965 286.695 187.675 281.779 188.147 277.077C188.425 274.588 188.857 272.118 189.44 269.682C189.776 268.209 187.508 267.579 187.172 269.057L187.172 269.057Z" fill="#3F3D56"/>
<path d="M226.13 316.487C225.408 315.577 224.894 314.52 224.624 313.391C224.354 312.261 224.335 311.086 224.569 309.948C224.802 308.81 225.282 307.737 225.975 306.805C226.668 305.873 227.557 305.104 228.579 304.553L216.622 269.155L226.386 231.642L242.129 238.76L232.414 267.054L239.683 308.239C240.495 310.018 240.627 312.033 240.053 313.902C239.48 315.772 238.24 317.366 236.57 318.382C234.899 319.399 232.914 319.768 230.99 319.418C229.066 319.069 227.337 318.026 226.13 316.487L226.13 316.487Z" fill="#FFB6B6"/>
<path d="M240.541 200.734C240.541 200.734 236.843 198.748 234.272 207.26C232.213 214.075 218.202 251.077 217.95 260.957C216.593 261.239 215.369 261.963 214.47 263.017C213.57 264.071 213.047 265.394 212.983 266.778L233.332 269.594C236.903 266.608 235.113 264.068 233.742 262.859L240.672 251.119L255.159 219.425L243.24 202.121L240.541 200.734Z" fill="#E6E6E6"/>
<path d="M201.59 245.148C199.264 252.915 195.757 260.277 191.193 266.978C190.064 268.624 188.877 270.229 187.633 271.792C186.666 270.035 185.495 268.398 184.144 266.915C179.4 261.701 173.041 258.29 166.87 254.871C160.699 251.452 154.434 247.783 150.075 242.239C148.118 239.744 146.717 236.859 145.966 233.779C144.978 229.599 145.354 225.24 147.793 221.751C151.337 216.677 158.402 214.89 164.408 216.356C170.422 217.822 175.456 222.001 179.361 226.8C178.083 220.904 184.301 215.211 190.315 215.729C196.329 216.254 201.151 221.507 202.751 227.326C204.358 233.136 203.315 239.361 201.59 245.148Z" fill="#6C63FF"/>
<path d="M317.846 29.4222C314.659 29.9425 311.612 31.1049 308.888 32.8387C306.164 34.5726 303.821 36.8418 302.001 39.5087C300.156 42.2622 298.927 45.3813 298.397 48.6531C297.868 51.925 298.05 55.2726 298.932 58.4674C299.923 62.1721 301.805 65.578 304.415 68.3881C305.448 69.4987 307.109 67.8325 306.078 66.7248C304.023 64.4701 302.47 61.805 301.521 58.9056C300.572 56.0062 300.249 52.9384 300.573 49.905C300.922 46.9896 301.888 44.1819 303.406 41.6686C304.924 39.1553 306.959 36.9939 309.377 35.3281C312.087 33.4289 315.2 32.1838 318.471 31.6905C319.963 31.4659 319.329 29.1989 317.846 29.4222V29.4222Z" fill="#3F3D56"/>
<g opacity="0.2">
<path opacity="0.2" d="M398.534 66.529C397.461 67.826 396.284 69.0324 395.013 70.1359C375.277 87.245 359.242 106.001 347.347 125.878L343.058 133.045L342.768 133.539C341.758 132.778 340.876 131.859 340.157 130.818C337.413 126.827 337.397 121.581 338.071 116.782C340.111 102.394 347.431 89.279 358.607 79.9901C369.783 70.7013 384.015 65.9029 398.534 66.529V66.529Z" fill="black"/>
</g>
<g opacity="0.2">
<path opacity="0.2" d="M191.193 266.978C190.064 268.624 188.877 270.229 187.633 271.792C186.666 270.035 185.495 268.398 184.144 266.915C179.4 261.701 173.041 258.29 166.87 254.871C160.699 251.453 154.434 247.783 150.075 242.239C148.118 239.744 146.717 236.859 145.966 233.779C159.838 235.702 172.585 242.464 181.956 252.872C185.708 257.097 188.82 261.85 191.193 266.978V266.978Z" fill="black"/>
</g>
<path d="M341.545 133.366C343.277 133.366 344.681 131.962 344.681 130.23C344.681 128.497 343.277 127.093 341.545 127.093C339.813 127.093 338.409 128.497 338.409 130.23C338.409 131.962 339.813 133.366 341.545 133.366Z" fill="#3F3D56"/>
</svg>
